<?xml version="1.0" encoding="UTF-8" standalone="no"?>
<!-- Created with Inkscape (http://www.inkscape.org/) -->

<svg
   xmlns:dc="http://purl.org/dc/elements/1.1/"
   xmlns:cc="http://creativecommons.org/ns#"
   xmlns:rdf="http://www.w3.org/1999/02/22-rdf-syntax-ns#"
   xmlns:svg="http://www.w3.org/2000/svg"
   xmlns="http://www.w3.org/2000/svg"
   version="1.2"
   width="163.49245"
   height="180"
   id="svg2">
  <metadata
     id="metadata68">
    <rdf:RDF>
      <cc:Work
         rdf:about="">
        <dc:format>image/svg+xml</dc:format>
        <dc:type
           rdf:resource="http://purl.org/dc/dcmitype/StillImage" />
        <dc:title></dc:title>
      </cc:Work>
    </rdf:RDF>
  </metadata>
  <defs
     id="defs4" />
  <circle
     cx="120"
     cy="79"
     r="37"
     transform="translate(-17.5,-10.5)"
     id="circle6"
     style="fill:none;stroke:#362f98;stroke-width:1" />
  <circle
     cx="79"
     cy="105"
     r="38"
     transform="translate(-17.5,-10.5)"
     id="circle8"
     style="fill:none;stroke:#392c95;stroke-width:3" />
  <circle
     cx="110"
     cy="94"
     r="50"
     transform="translate(-17.5,-10.5)"
     id="circle10"
     style="fill:none;stroke:#392b99;stroke-width:3" />
  <circle
     cx="114"
     cy="124"
     r="65"
     transform="translate(-17.5,-10.5)"
     id="circle12"
     style="fill:none;stroke:#3a2e9e;stroke-width:3" />
  <circle
     cx="98"
     cy="112"
     r="69"
     transform="translate(-17.5,-10.5)"
     id="circle14"
     style="fill:none;stroke:#382b9a;stroke-width:3" />
  <circle
     cx="111"
     cy="88"
     r="39"
     transform="translate(-17.5,-10.5)"
     id="circle16"
     style="fill:none;stroke:#34289d;stroke-width:1" />
  <circle
     cx="107"
     cy="77"
     r="42"
     transform="translate(-17.5,-10.5)"
     id="circle18"
     style="fill:none;stroke:#352b99;stroke-width:2" />
  <circle
     cx="110"
     cy="121"
     r="67"
     transform="translate(-17.5,-10.5)"
     id="circle20"
     style="fill:none;stroke:#32289a;stroke-width:3" />
  <circle
     cx="123"
     cy="97"
     r="43"
     transform="translate(-17.5,-10.5)"
     id="circle22"
     style="fill:none;stroke:#31249e;stroke-width:4" />
  <circle
     cx="83"
     cy="125"
     r="31"
     transform="translate(-17.5,-10.5)"
     id="circle24"
     style="fill:none;stroke:#2d249f;stroke-width:2" />
  <circle
     cx="124"
     cy="91"
     r="35"
     transform="translate(-17.5,-10.5)"
     id="circle26"
     style="fill:none;stroke:#3023a1;stroke-width:2" />
  <circle
     cx="88"
     cy="97"
     r="69"
     transform="translate(-17.5,-10.5)"
     id="circle28"
     style="fill:none;stroke:#3026a5;stroke-width:3" />
  <circle
     cx="90"
     cy="118"
     r="59"
     transform="translate(-17.5,-10.5)"
     id="circle30"
     style="fill:none;stroke:#2f2ba5;stroke-width:3" />
  <rect
     width="114.86058"
     height="114.86058"
     x="67.852646"
     y="-81.38694"
     transform="matrix(0.5,0.8660254,-0.8660254,0.5,0,0)"
     id="rect3077-6-7"
     style="fill:#8c00ff;fill-opacity:1;stroke:none" />
  <circle
     cx="105"
     cy="129"
     r="55"
     transform="translate(-17.5,-10.5)"
     id="circle32"
     style="fill:none;stroke:#332ca7;stroke-width:1" />
  <circle
     cx="111"
     cy="91"
     r="45"
     transform="translate(-17.5,-10.5)"
     id="circle34"
     style="fill:none;stroke:#332da3;stroke-width:1" />
  <circle
     cx="83"
     cy="75"
     r="30"
     transform="translate(-17.5,-10.5)"
     id="circle38"
     style="fill:none;stroke:#2d319e;stroke-width:1" />
  <circle
     cx="96"
     cy="108"
     r="44"
     transform="translate(-17.5,-10.5)"
     id="circle40"
     style="fill:none;stroke:#2c349c;stroke-width:2" />
  <circle
     cx="112"
     cy="125"
     r="56"
     transform="translate(-17.5,-10.5)"
     id="circle42"
     style="fill:none;stroke:#2b2f9a;stroke-width:1" />
  <circle
     cx="112"
     cy="72"
     r="47"
     transform="translate(-17.5,-10.5)"
     id="circle44"
     style="fill:none;stroke:#2d349e;stroke-width:4" />
  <circle
     cx="117"
     cy="107"
     r="32"
     transform="translate(-17.5,-10.5)"
     id="circle48"
     style="fill:none;stroke:#3136a5;stroke-width:4" />
  <circle
     cx="127"
     cy="74"
     r="42"
     transform="translate(-17.5,-10.5)"
     id="circle52"
     style="fill:none;stroke:#3838ab;stroke-width:4" />
  <circle
     cx="119"
     cy="88"
     r="48"
     transform="translate(-17.5,-10.5)"
     id="circle54"
     style="fill:none;stroke:#3c35b0;stroke-width:2" />
  <circle
     cx="92"
     cy="79"
     r="68"
     transform="translate(-17.5,-10.5)"
     id="circle58"
     style="fill:none;stroke:#3630ac;stroke-width:1" />
  <rect
     width="114.86058"
     height="114.86058"
     x="61.802105"
     y="-15.461207"
     transform="matrix(0.8660254,0.5,-0.5,0.8660254,0,0)"
     id="rect3077-6"
     style="fill:#8c00ff;fill-opacity:1;stroke:none" />
  <rect
     width="114.86058"
     height="114.86058"
     x="22.868202"
     y="40.660763"
     id="rect3077"
     style="fill:#8c00ff;fill-opacity:1;stroke:none" />
  <circle
     cx="124"
     cy="102"
     r="40"
     transform="translate(-17.5,-10.5)"
     id="circle62"
     style="fill:none;stroke:#3038a7;stroke-width:3" />
  <rect
     width="114.86058"
     height="114.86058"
     x="69.390038"
     y="-46.962616"
     transform="matrix(0.70710678,0.70710678,-0.70710678,0.70710678,0,0)"
     id="rect3077-3"
     style="fill:#8c00ff;fill-opacity:1;stroke:none" />
  <circle
     cx="97"
     cy="106"
     r="67"
     transform="translate(-17.5,-10.5)"
     id="circle60"
     style="fill:none;stroke:#3534a7;stroke-width:4" />
  <circle
     cx="84"
     cy="127"
     r="57"
     transform="translate(-17.5,-10.5)"
     id="circle56"
     style="fill:none;stroke:#3930ad;stroke-width:2" />
  <circle
     cx="113"
     cy="111"
     r="65"
     transform="translate(-17.5,-10.5)"
     id="circle46"
     style="fill:none;stroke:#2d37a2;stroke-width:3" />
  <circle
     cx="91"
     cy="82"
     r="36"
     transform="translate(-17.5,-10.5)"
     id="circle64"
     style="fill:none;stroke:#3233a3;stroke-width:4" />
  <circle
     cx="73"
     cy="125"
     r="41"
     transform="translate(-17.5,-10.5)"
     id="circle50"
     style="fill:none;stroke:#3433a7;stroke-width:3" />
  <circle
     cx="119"
     cy="122"
     r="30"
     transform="translate(-17.5,-10.5)"
     id="circle36"
     style="fill:none;stroke:#31329e;stroke-width:2" />
</svg>
